<svg id="图层_1" data-name="图层 1" xmlns="http://www.w3.org/2000/svg" viewBox="0 0 24 24"><defs><style>.cls-1{fill:#009237;}</style></defs><title>gsjj_g_画板 1</title><path class="cls-1" d="M10.14,23h-1V16.82a.46.46,0,0,0-.46-.46H5.86a.46.46,0,0,0-.46.46V23h-1V16.82a1.44,1.44,0,0,1,1.43-1.43H8.66a1.43,1.43,0,0,1,1.43,1.43Zm0,0"/><path class="cls-1" d="M10.6,23.49H8.71V16.82H5.81v6.72H3.92V16.82a1.87,1.87,0,0,1,1.89-1.89H8.66a1.87,1.87,0,0,1,1.89,1.89v6.67Zm-1-.92,0-5.75a1,1,0,0,0-1-1H5.86a1,1,0,0,0-1,1v5.75h0V16.82a.93.93,0,0,1,.93-.92H8.71a.92.92,0,0,1,.92.92Zm0,0"/><path class="cls-1" d="M20.22,17.28H15.89a.46.46,0,0,1-.46-.46.46.46,0,0,1,.46-.46h4.33a.46.46,0,0,1,.46.46.46.46,0,0,1-.46.46Zm0-3.6H15.89a.46.46,0,0,1-.46-.46.49.49,0,0,1,.46-.46h4.33a.46.46,0,0,1,.46.46.49.49,0,0,1-.46.46Zm0-3.59H15.89a.46.46,0,0,1-.46-.46.49.49,0,0,1,.46-.46h4.33a.46.46,0,0,1,.46.46.49.49,0,0,1-.46.46Zm-10.54,1H4.89a.46.46,0,0,1,0-.92H9.68a.46.46,0,0,1,.46.46.49.49,0,0,1-.46.46Zm0-4.33H4.89a.46.46,0,0,1,0-.92H9.68a.46.46,0,0,1,.46.46.46.46,0,0,1-.46.46Zm0,0"/><path class="cls-1" d="M20.22,17.74H15.89a.92.92,0,1,1,0-1.84h4.33a.92.92,0,1,1,0,1.84Zm-4.33-.92,4.33,0v0Zm4.33-2.68H15.89a.92.92,0,1,1,0-1.84h4.33a.92.92,0,1,1,0,1.84Zm-4.33-1,4.33,0ZM9.68,11.52H4.89a.92.92,0,1,1,0-1.84H9.68a.92.92,0,1,1,0,1.84Zm-4.79-1,4.79,0Zm15.33,0H15.89a.92.92,0,1,1,0-1.84h4.33a.92.92,0,0,1,0,1.84Zm-4.33-1,4.33,0ZM9.68,7.19H4.89a.92.92,0,0,1,0-1.84H9.68a.92.92,0,0,1,0,1.84ZM4.89,6.27l4.79.05Zm0,0"/><path class="cls-1" d="M23.08,23.54H13.5v-1h9.12V7.93A1.44,1.44,0,0,0,21.19,6.5H13.5v-1h7.64a2.38,2.38,0,0,1,2.4,2.4V23a.47.47,0,0,1-.46.51Zm0,0"/><path class="cls-1" d="M23.08,24H13V22.11h9.12V7.93a1,1,0,0,0-1-1H13V5.07h8.1A2.87,2.87,0,0,1,24,7.93V23a1,1,0,0,1-.92,1ZM14,23.08h9.12V7.93A2,2,0,0,0,21.14,6H14V6h7.18A1.87,1.87,0,0,1,23,7.93V23Zm0,0"/><path class="cls-1" d="M13.5,23.54H1a.46.46,0,0,1-.46-.46V2.91A2.38,2.38,0,0,1,3,.51h8.62A2.38,2.38,0,0,1,14,2.91V23a.47.47,0,0,1-.46.51Zm-12-1H13V2.91a1.44,1.44,0,0,0-1.43-1.43H3A1.43,1.43,0,0,0,1.53,2.91Zm0,0"/><path class="cls-1" d="M13.5,24H1a.92.92,0,0,1-.92-.92V2.91A2.87,2.87,0,0,1,3,.05h8.62a2.87,2.87,0,0,1,2.85,2.86V23a1,1,0,0,1-.92,1ZM3,1A2,2,0,0,0,1,2.91V23H13.5V2.91A2,2,0,0,0,11.57,1ZM13.5,23H1.07V2.91A1.87,1.87,0,0,1,3,1h8.62a1.86,1.86,0,0,1,1.88,1.89V23ZM2,22.11H12.58V2.91a1,1,0,0,0-1-1H3a.94.94,0,0,0-1,1Zm0,0"/></svg>