<svg id="图层_1" data-name="图层 1" xmlns="http://www.w3.org/2000/svg" viewBox="0 0 24 24"><defs><style>.cls-1{fill:#009237;}</style></defs><title>lxwm_g</title><path class="cls-1" d="M11.78,13.31a4.5,4.5,0,1,0-4.5-4.5,4.51,4.51,0,0,0,4.5,4.5Zm0-8.25A3.75,3.75,0,1,1,8,8.81a3.75,3.75,0,0,1,3.75-3.75Zm0-5.06a9,9,0,0,0-9,9c0,5.25,4.5,10.62,7.78,14.4a1.86,1.86,0,0,0,1.19.6h.05A1.83,1.83,0,0,0,13,23.4c3.29-3.78,7.79-9.15,7.79-14.4a9,9,0,0,0-9-9Zm.08,22.41a.49.49,0,0,1-.1.08l-.09-.1C8.92,19.22,4.28,13.89,4.28,9a7.5,7.5,0,0,1,15,0c0,4.89-4.64,10.22-7.42,13.41Zm0,0"/></svg>