<svg id="图层_1" data-name="图层 1" xmlns="http://www.w3.org/2000/svg" xmlns:xlink="http://www.w3.org/1999/xlink" viewBox="0 0 24 24"><defs><style>.cls-1{fill:none;}.cls-2{clip-path:url(#clip-path);}.cls-3{fill:#009237;}</style><clipPath id="clip-path"><rect id="SVGID" class="cls-1" x="1.88" width="19.96" height="24"/></clipPath></defs><title>gsjj_g</title><g class="cls-2"><path class="cls-3" d="M18.35,0h-13A3.48,3.48,0,0,0,1.88,3.48v17A3.48,3.48,0,0,0,5.36,24H17.81l3.64-3.64.38-.38V3.48A3.48,3.48,0,0,0,18.35,0ZM3.73,20.49v-17A1.63,1.63,0,0,1,5.36,1.85h13A1.63,1.63,0,0,1,20,3.48V18l-2.75,0a1.36,1.36,0,0,0-1.34,1.38l0,2.66H5.36a1.64,1.64,0,0,1-1.63-1.63Zm0,0"/></g><path class="cls-3" d="M12.38,7.66c0,.65-.15,1.56.35,1.7a6.7,6.7,0,0,0,1.42,0H17a6.52,6.52,0,0,0,1.4,0,.58.58,0,0,0,.39-.47V3.7a.57.57,0,0,0-.42-.48H12.8c-.6.1-.42,1-.42,1.7Zm1.22-3.3h4V8.21h-4V4.4s0,0,0,0Zm3.78,12.23h.95a.6.6,0,0,0,.45-.48v-.9H17.39c0,.42,0,.92,0,1.38Zm0,0"/><path class="cls-3" d="M15.39,7.08a.8.8,0,1,0,0-1.55.8.8,0,0,0,0,1.55ZM7.94,5.53A.79.79,0,0,0,7.75,7a.81.81,0,1,0,.19-1.48Zm3,4.89a6.73,6.73,0,0,0-1.42,0H6.68a6.43,6.43,0,0,0-1.39,0,.65.65,0,0,0-.37.39v5.35a.68.68,0,0,0,.45.42h5.5c.63-.06.47-1,.47-1.67V12.09c0-.61.13-1.52-.37-1.67Zm-.85,5h-4V11.62s0-.06,0-.06h4v3.88Zm0,0"/><path class="cls-3" d="M6.63,9.37H9.56a6.21,6.21,0,0,0,1.44,0c.45-.18.32-.95.32-1.6V4.82c0-.62.13-1.56-.42-1.62H5.36a.59.59,0,0,0-.42.4V9c.09.58,1,.42,1.69.42Zm-.52-5s0,0,0,0h4V8.21h-4Zm10,12.19V15.2H14.81c-.05.42,0,.93,0,1.39Zm0,0"/><path class="cls-3" d="M14.8,14h4c0-.54,0-1.13,0-1.62V10.89c-.05-.52-.59-.52-1.19-.48,0,.75,0,1.59,0,2.36H16.32V10.41h-2.7c-.55,0-1.1-.06-1.22.33a5.65,5.65,0,0,0,0,1.37v2.75c0,.72-.16,1.61.46,1.73h.72c0-1.15,0-2.35,0-3.48.4,0,.85,0,1.23,0Zm-5.91-.2A.8.8,0,0,0,8,12.72a.77.77,0,0,0-.71.56c-.29,1,1.26,1.35,1.57.52Zm0,0"/></svg>